<?xml version="1.0" encoding="iso-8859-1"?>
<!-- Generator: Adobe Illustrator 18.0.0, SVG Export Plug-In . SVG Version: 6.00 Build 0)  -->
<!DOCTYPE svg PUBLIC "-//W3C//DTD SVG 1.1//EN" "http://www.w3.org/Graphics/SVG/1.1/DTD/svg11.dtd">
<svg version="1.1" id="Capa_1" xmlns="http://www.w3.org/2000/svg" xmlns:xlink="http://www.w3.org/1999/xlink" x="0px" y="0px"
	 viewBox="0 0 499.857 499.857" style="enable-background:new 0 0 499.857 499.857;" xml:space="preserve">
<path id="XMLID_140_" d="M364.83,52.912C310.5,12.439,244.245-5.604,177.286,1.52c-2.749,0.293-5.285,1.692-6.985,3.885
	c-1.702,2.193-2.438,4.982-2.028,7.729l14.559,99.563c0.77,5.317,5.547,9.111,10.913,8.677c28.906-2.347,57.436,4.034,82.613,18.103
	l-29.251,38.018c-18.681-9.642-39.816-15.189-62.295-15.189c-75.153,0-136.093,60.93-136.093,136.085l-16.524,104.92
	c-0.801,4.852,0.573,9.809,3.747,13.563c3.19,3.746,7.853,5.905,12.777,5.905h30.707c8.555,25.087,29.478,70.075,70.214,76.218
	c2.159,0.516,4.4,0.859,6.723,0.859h164.542v-0.008h39.998c15.689,0,28.417-12.72,28.417-28.417v-38.893
	c0-10.929-6.265-20.891-16.113-25.619l-52.302-25.104v-83.424c0-38.927-16.44-73.943-42.65-98.745l28.761-37.374
	c20.775,20.114,35.106,45.684,41.159,74.198c1.112,5.252,6.12,8.745,11.437,7.967l99.545-14.534c2.749-0.402,5.22-1.915,6.823-4.165
	c1.618-2.257,2.241-5.071,1.734-7.795C455.41,151.698,419.159,93.393,364.83,52.912z M81.256,311.169h49.521
	c33.797,0,61.199,27.403,61.199,61.216l-20.498,16.892H68.448L81.256,311.169z"/>
<g>
</g>
<g>
</g>
<g>
</g>
<g>
</g>
<g>
</g>
<g>
</g>
<g>
</g>
<g>
</g>
<g>
</g>
<g>
</g>
<g>
</g>
<g>
</g>
<g>
</g>
<g>
</g>
<g>
</g>
</svg>
