<?xml version="1.0" encoding="iso-8859-1"?>
<!-- Generator: Adobe Illustrator 18.0.0, SVG Export Plug-In . SVG Version: 6.00 Build 0)  -->
<!DOCTYPE svg PUBLIC "-//W3C//DTD SVG 1.1//EN" "http://www.w3.org/Graphics/SVG/1.1/DTD/svg11.dtd">
<svg version="1.1" id="Capa_1" xmlns="http://www.w3.org/2000/svg" xmlns:xlink="http://www.w3.org/1999/xlink" x="0px" y="0px"
	 viewBox="0 0 486.991 486.991" style="enable-background:new 0 0 486.991 486.991;" xml:space="preserve">
<g id="XMLID_189_">
	<path id="XMLID_194_" d="M415.143,58.339c3.685-3.788,9.729-3.862,13.516-0.177c3.779,3.666,3.861,9.72,0.178,13.507
		c-0.048,0.047-0.131,0.13-0.188,0.177L303.494,193.588l24.309,26.475l124.449-114.244c12.089-11.091,20.316-25.764,23.478-41.865
		l11.148-56.809c0.382-1.959-0.233-3.974-1.643-5.391c-1.418-1.41-3.434-2.025-5.392-1.642l-56.808,11.147
		c-16.101,3.162-30.775,11.39-41.865,23.479L269.426,156.471l24.414,26.595L415.143,58.339z"/>
	<path id="XMLID_193_" d="M161.499,274.043l-51.734,56.371c-17.35-12.005-37.024-20.933-58.507-25.382
		c-10.344-2.165-20.437,4.487-22.573,14.832c-2.146,10.326,4.495,20.438,14.83,22.573c15.803,3.275,30.29,9.787,43.172,18.451
		L15.29,416.308c-8.955,6.95-14.487,17.408-15.206,28.721c-0.709,11.306,3.48,22.378,11.493,30.393
		c7.424,7.433,17.48,11.566,27.919,11.566c0.821,0,1.641-0.018,2.473-0.074c11.314-0.709,21.771-6.24,28.72-15.196l54.178-69.793
		c6.12,10.831,10.746,22.622,13.359,35.223c1.865,9.031,9.811,15.233,18.683,15.233c1.288,0,2.583-0.13,3.89-0.401
		c10.336-2.136,16.978-12.248,14.833-22.574c-3.805-18.405-11.037-35.401-20.476-50.857l60.092-55.167L161.499,274.043z"/>
	<path id="XMLID_190_" d="M471.699,416.308l-54.934-42.639l-16.464-12.781c12.146-8.17,32.235-15.34,43.173-18.451
		c10.944-3.113,16.977-12.247,14.832-22.573c-2.146-10.345-12.324-17.014-22.575-14.832c-8.136,1.688-16.008,4.031-23.619,6.876
		c-12.51,4.672-24.103,11.043-34.888,18.506L105.82,34.738C94.728,22.649,80.054,14.422,63.956,11.259L7.145,0.112
		C6.764,0.038,6.382,0,5.999,0C4.423,0,2.892,0.625,1.754,1.754C0.346,3.171-0.269,5.187,0.113,7.146L11.26,63.954
		c3.162,16.101,11.391,30.774,23.479,41.865l297.092,272.729c-6.957,11.39-12.471,23.684-16.454,36.753
		c-1.418,4.664-3.022,9.264-4.019,14.105c-2.146,10.326,4.495,20.438,14.83,22.574c1.307,0.271,2.604,0.401,3.89,0.401
		c6.568,0,12.594-3.423,16.055-8.853c1.213-1.902,2.145-4.028,2.63-6.38c2.612-12.601,7.239-24.392,13.358-35.223l11.529,14.85
		l42.648,54.943c6.95,8.957,17.408,14.487,28.722,15.196c11.305,0.708,22.379-3.47,30.393-11.492
		c8.013-8.015,12.199-19.087,11.491-30.393C486.186,433.716,480.656,423.258,471.699,416.308z M266.665,266.562
		c-2.181,2.239-5.772,2.297-8.021,0.113L58.339,71.846c-0.056-0.047-0.14-0.13-0.187-0.177c-3.685-3.788-3.6-9.841,0.176-13.507
		c3.789-3.685,9.834-3.61,13.519,0.177l194.818,200.314C268.792,260.844,268.811,264.352,266.665,266.562z"/>
</g>
<g>
</g>
<g>
</g>
<g>
</g>
<g>
</g>
<g>
</g>
<g>
</g>
<g>
</g>
<g>
</g>
<g>
</g>
<g>
</g>
<g>
</g>
<g>
</g>
<g>
</g>
<g>
</g>
<g>
</g>
</svg>
